PathFileType	4	(X/Y/Z)	Patient4_TMGait_0pt4_02_left_29.trc.trc
DataRate	CameraRate	NumFrames	NumMarkers	Units	OrigDataRate	OrigDataStartFrame	OrigNumFrames
74.468085106383	74.468085106383	4	33	mm	74.468085106383	124	       141
Frame#	Time	Sacral			L.Shoulder			Chest			R.Shoulder			Neck			R.ASIS			L.ASIS			R.Thigh.Superior			R.Thigh.Lateral			R.Thigh.Inferior			R.Patella			L.Thigh.Superior			L.Thigh.Lateral			L.Thigh.Inferior			L.Patella			L.Shank.Superior			L.Shank.Lateral			L.Shank.Inferior			R.Shank.Superior			R.Shank.Lateral			R.Shank.Inferior			R.Heel			R.Midfoot.Superior			R.Midfoot.Lateral			R.Toe			L.Heel			L.Midfoot.Lateral			L.Midfoot.Superior			L.Toe			L.Elbow			L.Wrist			R.Elbow			R.Wrist			
		X1	Y1	Z1	X2	Y2	Z2	X3	Y3	Z3	X4	Y4	Z4	X5	Y5	Z5	X6	Y6	Z6	X7	Y7	Z7	X8	Y8	Z8	X9	Y9	Z9	X10	Y10	Z10	X11	Y11	Z11	X12	Y12	Z12	X13	Y13	Z13	X14	Y14	Z14	X15	Y15	Z15	X16	Y16	Z16	X17	Y17	Z17	X18	Y18	Z18	X19	Y19	Z19	X20	Y20	Z20	X21	Y21	Z21	X22	Y22	Z22	X23	Y23	Z23	X24	Y24	Z24	X25	Y25	Z25	X26	Y26	Z26	X27	Y27	Z27	X28	Y28	Z28	X29	Y29	Z29	X30	Y30	Z30	X31	Y31	Z31	X32	Y32	Z32	X33	Y33	Z33	

124	40.541714285714	871.650540973860	1002.104828262048	514.513121340669	1013.043970365695	1428.247145465306	306.241407414354	1146.225950046672	1360.880711484241	444.281165868062	1098.358283667496	1435.664286700331	630.617769083181	1025.823456952799	1490.013794434199	461.641223230671	1114.018037090592	933.987366435154	594.322968514735	1059.366745334943	958.686301647758	324.776832227031	1113.274462624279	722.991663870599	566.469694633054	1015.226716222824	626.341709366858	635.333938445665	1071.466432339337	562.339896906212	551.540752759015	1053.306453389339	476.103265386961	557.974471946442	1134.718191951151	764.629769219092	346.614656132095	1068.667964245157	636.415383845815	283.213317631495	1173.843298450427	575.311331098436	337.280128015234	1193.877514532054	509.016281947154	337.005704178241	1174.691710587816	436.805002949292	327.901293154445	1099.557058106492	310.512763645506	281.462189028485	1182.761273126618	207.139071025115	333.738899466731	1012.362058045720	392.930630320421	566.729169684147	928.173644696147	301.102545320110	631.709775361645	951.574952091401	201.161706492895	566.628286372823	799.095024666246	45.755069000174	535.948008940280	969.076081570573	95.789277788439	576.819130468595	879.477620988665	37.504125997614	613.217832420872	1087.885922730579	40.439266257899	610.018594958302	1087.890223851980	40.601799088963	377.055804403550	1158.641569477867	37.874297291413	294.184429556305	1238.766843854460	104.745539815054	314.638420585949	1367.422808393744	59.993823861735	282.767006251933	901.454775340617	1088.920992758445	214.469025571045	931.788896249887	832.663894001610	169.237391529670	1234.241034152519	1118.904843255369	737.844664770140	1464.201741426242	1172.325269230970	651.921632181754	
125	40.555142857143	872.541334584456	1001.550184014701	511.412643161304	1013.418542784942	1427.602804534436	303.173562090147	1146.150803545362	1360.929999457616	441.949424195834	1097.014292953921	1435.464026314126	628.089406126101	1025.209619949121	1489.637278272114	458.743074680789	1114.657667248678	933.751128746645	592.714622789837	1061.346906043954	957.856067988102	323.041321552068	1113.408863421475	722.393341026329	565.462969722634	1014.313841912638	626.226017363148	633.911488778456	1070.607759448167	561.713637973692	550.547094372082	1051.981535983904	475.137704008457	556.927387134892	1136.053474872089	762.811046789722	345.545453494221	1068.402514002569	635.064571318490	282.941193553715	1173.080187934034	573.646216722399	337.495457472350	1191.478368716879	506.528475167973	337.923840330525	1171.931431888927	434.183376336215	328.558251033361	1095.343435575378	308.663767968856	282.211365637121	1176.807323080112	204.427071860125	335.402529213863	1010.042610398880	392.466096062248	565.853233675248	924.888371266862	301.621854358893	631.043540126716	947.449338310817	201.232314094634	566.351179183115	793.742276307810	46.612162636063	536.167350239654	963.963688366542	95.941738947021	576.914617392530	874.180532053389	37.846249992213	613.329261883714	1082.589584434125	40.175412233395	610.124186289127	1078.911411337575	39.777934341685	378.807728272718	1149.513505100668	36.504942211826	295.675882291812	1230.992309727174	101.566970060010	316.837345303955	1359.108414380510	54.614346497091	284.343859801900	904.152437596949	1087.648885347598	210.545593852008	938.615399640208	831.832267535009	164.879006073999	1230.961596556810	1116.572483308390	733.807972565619	1463.823103515225	1161.493972618914	649.451832427902	
126	40.568571428571	873.366643723778	1001.270056885516	508.255646243353	1013.908341693418	1427.170274374146	299.974875053693	1146.161332339625	1361.143520948279	439.494542269386	1095.818053740146	1435.519053420070	625.408327280682	1024.708982631894	1489.485242358491	455.718155775250	1115.198338810704	933.728306989515	590.933166158535	1063.204384920021	957.358615433024	321.141870591179	1113.613179607686	722.000260832605	564.226392831170	1013.721545523485	626.207334963621	632.337399069898	1070.135807359825	561.250003635874	549.327868321292	1051.225855431991	474.147489743423	555.833941470655	1137.383102947595	761.581290898306	344.603911611608	1068.664148144268	634.393960008144	282.292007173322	1172.630785992365	572.589536469200	337.567910901943	1189.402319206924	504.696786077519	338.555119436835	1169.642503620626	432.214993330790	328.828495172581	1091.960350196489	307.409847894312	282.184773785754	1171.651543814532	202.421899582045	336.507424136875	1008.107683457842	392.065035095199	564.931946736251	921.833118806537	302.348153706857	630.289100399364	943.521258394331	201.455319310044	566.070786609081	788.415933412487	47.808925354465	536.387645260537	958.984889672639	96.139593625239	577.034483115709	868.907392229273	38.338758243760	613.430462622291	1077.328809029723	39.894974963813	610.234272397086	1071.081048420973	39.164588460742	379.818689591925	1141.621283481033	35.651894635421	296.520407344118	1224.021704481929	99.385515109370	318.402617077413	1351.793129219856	50.937246781422	285.472221831500	907.394157458444	1086.470355956485	206.379878645555	945.970717200938	831.118013062530	160.517181733047	1227.121007953093	1114.391075144827	730.124182879080	1462.738435392787	1149.604583779077	647.225799105176	
127	40.582000000000	874.109724408991	1001.290246412801	505.067636356710	1014.491109929129	1426.991363028945	296.683423072383	1146.252012440663	1361.529461242367	436.927517037190	1094.807427306402	1435.857611701364	622.581694923575	1024.331821266712	1489.578742794857	452.594143635135	1115.607347875637	933.962525529627	588.968814367975	1064.883747020999	957.211009049318	319.051085412797	1113.899096658549	721.859658681325	562.755457797856	1013.540146351354	626.288651789076	630.631197495126	1070.196375027927	560.972039546783	547.911644798014	1051.220176364750	473.122192825039	554.776495224168	1138.672205466759	760.987399714085	343.701957855555	1069.365429502882	634.362057093053	281.267183590290	1172.434147090287	572.086514296927	337.365437152703	1187.623587782432	503.491349642824	338.796670320749	1167.765926244037	430.865028236333	328.696579607585	1089.290362747475	306.715491925961	281.465413876172	1167.202245685853	201.082955005379	337.080920944249	1006.702940203843	391.729386710726	564.018096341160	919.103480854581	303.329398757871	629.472340095859	939.870357456790	201.869107056693	565.821150725409	783.149810853684	49.444701823285	536.605682236668	954.187899089253	96.393404450626	577.192405357061	863.673284361002	39.032038180853	613.509659295317	1072.100584936356	39.601983745339	610.343587263200	1064.322584553662	38.760892342703	380.214386520274	1134.868426331742	35.222614429819	296.829049479021	1217.802637587623	98.099948309080	319.363561774506	1345.397944940842	48.786185037167	286.178626630906	911.163220504484	1085.447548046148	201.993306074053	953.857856444719	830.585867182797	156.195269581880	1222.749379693603	1112.445701394584	726.835522381067	1460.807664483109	1136.785580326889	645.249236914633	
